<svg height="512pt" viewBox="0 0 512 512" width="512pt" xmlns="http://www.w3.org/2000/svg" xmlns:xlink="http://www.w3.org/1999/xlink"><linearGradient id="a" gradientUnits="userSpaceOnUse" x1="256" x2="256" y1="0" y2="512"><stop offset="0" stop-color="#2af598"/><stop offset="1" stop-color="#009efd"/></linearGradient><path d="m437.019531 74.980469c-48.351562-48.351563-112.640625-74.980469-181.019531-74.980469s-132.667969 26.628906-181.019531 74.980469c-48.351563 48.351562-74.980469 112.640625-74.980469 181.019531s26.628906 132.667969 74.980469 181.019531c48.351562 48.351563 112.640625 74.980469 181.019531 74.980469s132.667969-26.628906 181.019531-74.980469c48.351563-48.351562 74.980469-112.640625 74.980469-181.019531s-26.628906-132.667969-74.980469-181.019531zm-181.019531 397.019531c-119.101562 0-216-96.898438-216-216s96.898438-216 216-216 216 96.898438 216 216-96.898438 216-216 216zm-76-338.394531 180-36v218.972656c0 30.414063-31.570312 55.421875-61.984375 55.421875h-1.082031c-19.148438 0-37.574219-13.023438-40.503906-31.933594-.535157-3.488281-.566407-6.964844-.105469-10.4375 1.929687-14.914062 13.09375-27.035156 27.148437-31.21875l3.109375-.75 25.34375-6.113281c4.75-1.214844 8.078125-5.492187 8.078125-10.398437v-94.753907l-100 20v139.636719c-.003906 30.414062-31.574218 54.96875-61.988281 54.96875h-1.082031c-19.148438 0-37.574219-12.566406-40.503906-31.480469-.535157-3.488281-.566407-6.960937-.105469-10.4375 1.929687-14.910156 13.09375-27.035156 27.148437-31.21875l3.109375-.75 25.339844-6.113281c4.753906-1.210938 8.078125-5.492188 8.078125-10.394531zm0 0" fill="url(#a)"/></svg>