<svg height="511pt" viewBox="0 -14 511.9993 511" width="511pt" xmlns="http://www.w3.org/2000/svg" xmlns:xlink="http://www.w3.org/1999/xlink"><linearGradient id="a" gradientUnits="userSpaceOnUse" x1="256" x2="256" y1=".49965" y2="482.49965"><stop offset="0" stop-color="#2af598"/><stop offset="1" stop-color="#009efd"/></linearGradient><path d="m501.902344 362.132812c-2.761719-.640624-5.570313-1.105468-8.289063-1.898437-47.015625-13.679687-76.089843-46.476563-94.902343-89.84375-1.222657-2.808594-2.71875-5.429687-2.710938-7.859375.015625-5.472656 4.011719-9.957031 9.980469-13.355469 6.707031-3.8125 15.039062-6.042969 22.015625-9.433593 9.054687-4.402344 18.765625-8.195313 26.5-14.371094 9.859375-7.863282 8.105468-20.519532-2.527344-27.484375-5.460938-3.574219-11.109375-5.363281-17.023438-5.363281-3.890624 0-7.890624.773437-12.027343 2.316406-6.972657 2.605468-15.054688 4.460937-22.429688 5.554687-.558593.085938-1.082031.125-1.578125.125-3.773437 0-5.648437-2.453125-5.332031-7.777343 1.246094-20.996094 2.421875-42.222657 2.421875-63.066407 0-40.164062-15.542969-73.664062-47.128906-97.917969-27.710938-21.28125-57.347656-31.257812-87.871094-31.257812-25 0-45.378906 4.289062-68.367188 13.902344-43.988281 18.394531-71.214843 53.023437-74.894531 101.886718-.527343 7.054688-.738281 14.132813-.738281 21.226563 0 18.003906 1.195312 36.394531 1.917969 54.546875.230469 5.832031-1.566407 8.554688-5.875 8.554688-.546875 0-1.136719-.042969-1.765625-.128907-7.851563-1.089843-15.875-3.144531-23.277344-5.851562-3.835938-1.398438-7.519531-2.113281-11.113281-2.113281-4.808594 0-9.449219 1.28125-14.046875 3.914062-12.867188 7.359375-14.480469 21.175781-2.601563 30.082031 7.214844 5.410157 16.019531 8.796875 24.320313 12.636719 6.40625 2.96875 13.476562 5.289062 19.707031 8.546875 7.699219 4.027344 10.957031 9.179687 10.734375 15.828125-.09375 2.75-.847656 5.757812-2.25 9.046875-3.046875 7.144531-6.640625 14.144531-10.742188 20.738281-21.828124 35.074219-50.210937 61.011719-92.28125 68.886719-5.832031 1.09375-9.726562 7.714844-9.726562 10.300781v1.171875c2.589844 9.199219 9.039062 15.210938 17.550781 18.136719 13.121094 4.503906 26.507813 8.40625 40.011719 11.566406 12.257812 2.867188 12.394531 2.277344 15 14.394532 3.457031 16.058593 5.4375 20.777343 15.4375 20.777343 3.433594 0 7.792969-1.140625 13.472656-2.296875 8.527344-1.738281 16.871094-2.703125 25.011719-2.703125.171875 0 .34375 0 .515625.003907 19.539062.097656 37.886719 6.128906 54.707031 19.933593 7.800781 6.398438 16.546875 11.953125 25.550781 16.535157 16.289063 8.292968 32.699219 12.476562 49.097657 12.476562 16.335937 0 32.664062-4.15625 48.832031-12.53125 12.101562-6.265625 23.289062-14.449219 34.414062-22.429688 13.367188-9.582031 27.496094-12.988281 42.886719-12.988281h.511719c2.953125.015625 5.949219.160157 9 .417969 8.929688.761719 17.777344 2.199219 26.6875 3.222656 2.019531.234375 3.800781.359375 5.382812.359375 8.207032 0 11.070313-3.449219 13.585938-13.757812 1.007812-4.132813 2.117188-8.25 2.851562-12.433594.789063-4.496094 3.683594-6.753906 8.425782-7.9375 16.203125-4.03125 32.34375-8.488281 48.117187-13.921875 4.90625-1.691406 9.546875-6.335938 12.570313-10.808594 5.253906-7.769531 1.421875-15.441406-7.71875-17.558594zm-98.175782 33.832032c-2.714843-.316406-5.492187-.609375-8.34375-.851563-4.160156-.351562-8.261718-.542969-12.1875-.5625h-.707031c-25.324219 0-46.976562 6.699219-66.195312 20.480469l-2 1.4375c-9.613281 6.902344-18.691407 13.417969-27.503907 17.984375-10.453124 5.414063-20.40625 8.046875-30.433593 8.046875-10.09375 0-20.214844-2.65625-30.949219-8.121094-6.875-3.5-13.039062-7.476562-18.324219-11.8125-23.277343-19.105468-50.152343-28.867187-79.886719-29.015625h-.710937c-6.195313 0-12.605469.410157-19.167969 1.226563-4.503906-11.050782-11.160156-18.550782-21.164062-23.738282 18.625-14.222656 35.152344-33.027343 49.816406-56.589843 5.082031-8.167969 9.652344-16.976563 13.578125-26.183594 3.34375-7.847656 5.171875-15.71875 5.429687-23.390625.449219-13.371094-3.566406-25.605469-11.402343-35.652344.847656-.757812 1.667969-1.546875 2.460937-2.371094 6.261719-6.519531 13.578125-18.121093 12.851563-36.378906-.210938-5.273437-.460938-10.589844-.703125-15.726562-.609375-12.988282-1.183594-25.257813-1.183594-37.230469 0-6.652344.203125-12.613281.628906-18.222656 2.449219-32.582031 18.949219-54.824219 50.4375-67.988281 18.351563-7.675782 33.6875-10.804688 52.933594-10.804688 22.597656 0 43.371094 7.515625 63.511719 22.980469 21.1875 16.273437 31.488281 37.925781 31.488281 66.195312 0 19.464844-1.113281 39.816407-2.351562 60.695313-1.0625 17.9375 6.125 29.570312 12.34375 36.167968.792968.84375 1.617187 1.652344 2.464843 2.421876-8.03125 9.558593-12.417969 21.082031-12.457031 33.449218-.03125 10.761719 3.777344 19.035156 5.609375 23.007813.132813.292969.273437.589843.40625.890625 15.6875 36.164062 37.089844 64.394531 63.945313 84.441406-10.335938 5.644531-18.078126 14.398438-22.234376 25.214844zm0 0" fill="url(#a)"/></svg>