<svg height="512pt" viewBox="-104 0 512 512" width="512pt" xmlns="http://www.w3.org/2000/svg" xmlns:xlink="http://www.w3.org/1999/xlink"><linearGradient id="a" gradientUnits="userSpaceOnUse" x1="151.5" x2="151.5" y1="0" y2="512"><stop offset="0" stop-color="#2af598"/><stop offset="1" stop-color="#009efd"/></linearGradient><path d="m303 512h-95.113281c-41.933594 0-77.214844-11.949219-102.035157-34.5625-27.769531-25.300781-41.851562-62.195312-41.851562-109.65625v-120.78125h-64v-110.472656l14.976562-3.886719c76.714844-19.910156 87.253907-92.238281 88.65625-113.929687l1.207032-18.710938h112.160156v120h86v127h-86v102.695312c0 22.457032 6.5625 29.304688 28.082031 29.304688h57.917969zm-263-305h64v160.78125c0 86.136719 56.492188 104.21875 103.886719 104.21875h55.113281v-53h-17.917969c-20.644531 0-37.015625-5.484375-48.660156-16.308594-12.886719-11.972656-19.421875-29.804687-19.421875-53v-142.691406h86v-47h-86v-120h-35.625c-8.433594 50.261719-38.546875 104.144531-101.375 126.742188zm0 0" fill="url(#a)"/></svg>