<svg height="511pt" viewBox="0 -127 511.99859 511" width="511pt" xmlns="http://www.w3.org/2000/svg" xmlns:xlink="http://www.w3.org/1999/xlink"><linearGradient id="a" gradientUnits="userSpaceOnUse" x1="255.999" x2="255.999" y1=".499295" y2="257.499295"><stop offset="0" stop-color="#2af598"/><stop offset="1" stop-color="#009efd"/></linearGradient><path d="m454.011719 154.460938c-.445313-14.859376 12.230469-29.109376 29.3125-28.960938 15.675781.136719 28.886719 13.304688 28.671875 29.132812-.234375 17.332032-14.542969 29.023438-29.335938 28.863282-15.492187-.164063-29.050781-13.15625-28.648437-29.035156zm-210.011719 77.039062v-132c0-14.359375-11.640625-26-26-26s-26 11.640625-26 26v132c0 14.359375 11.640625 26 26 26s26-11.640625 26-26zm191.09375-14.4375c-14.285156-19.402344-34.335938-45.789062-49.890625-66.589844 10.808594-10.242187 25.285156-24.089844 34.246094-32.710937 6.777343-6.523438 9.597656-14.515625 7.65625-23.78125-2.058594-9.828125-8.097657-16.488281-17.742188-19.304688-9.507812-2.78125-18.117187-.601562-25.363281 6.289063-12.4375 11.828125-35.386719 33.007812-53 49.441406v-103.90625c0-14.359375-11.640625-26-26-26s-26 11.640625-26 26v205c0 14.359375 11.640625 26 26 26s26-11.640625 26-26v-30.253906c5.363281-5.09375 11.292969-10.730469 16.089844-15.289063 14.570312 19.265625 34.183594 44.378907 46.675781 61.136719 10.074219 13.511719 29.730469 13.910156 40.460937.929688 7.316407-8.847657 7.757813-21.601563.867188-30.960938zm-280.597656-.9375c-13.425782-18.101562-34.601563-45.230469-50.226563-65.914062 12.527344-11.46875 28.367188-25.84375 35.789063-33.195313 7.460937-7.398437 9.59375-16.519531 6.09375-26.484375-6.230469-17.730469-28.4375-22.738281-42.152344-9.667969-10.96875 10.457031-33.296875 31.832031-52 49.71875v-102.082031c0-14.359375-11.640625-26-26-26s-26 11.640625-26 26v203c0 14.359375 11.640625 26 26 26s26-11.640625 26-26v-30.375c5.003906-4.742188 10.847656-10.292969 15.863281-15.058594 14.511719 19.417969 33.753907 44.824219 46.136719 61.214844 6.4375 8.519531 15.421875 11.828125 25.933594 9.488281 18.5625-4.136719 26-25.21875 14.5625-40.644531zm0 0" fill="url(#a)"/></svg>