<svg id="Capa_2_1_" enable-background="new 0 0 512 512" height="512" viewBox="0 0 512 512" width="512" xmlns="http://www.w3.org/2000/svg" xmlns:xlink="http://www.w3.org/1999/xlink"><linearGradient id="SVGID_1_" gradientUnits="userSpaceOnUse" x1="255.88" x2="255.88" y1="-53" y2="449.837"><stop offset="0" stop-color="#29f198"/><stop offset="1" stop-color="#009ef9"/></linearGradient><path d="m461 119c-54.5 0-98.9-44.2-98.9-98.5l-.1-20.5h-116v346.2c-.1 22-14.1 41.4-35 48.3-5.2 1.7-10.6 2.6-16.1 2.6-28.2 0-51.1-22.9-51.1-51.1 0-21.1 12.9-39.3 31.2-47.1 6.1-2.6 12.8-4 19.9-4 5.5 0 10.9.9 16.1 2.6l4 1.3v-117.6c-6.1-.7-12.3-1-18.4-1-7.3 0-14.5.5-21.6 1.4-36.1 4.7-69.5 21-95.7 47.2-31.3 31.3-48.5 72.9-48.5 117.2s17.2 86 48.5 117.3 73 48.6 117.3 48.6c8.3 0 16.7-.6 24.9-1.8 35.1-5.3 67.1-21.4 92.4-46.7 31.1-31.1 48.4-72.5 49.1-116.6v-136c4.4 2.5 9.5 4.9 14.6 7.1 26.5 11.2 83.7 17.1 83.7 17.1h19.7v-116zm-20 74.6c-16.6-1.9-32.7-6.1-48.2-12.6-13.8-5.8-26.7-13.4-38.5-22.4l-32.3-24.8v212.8c-.1 33.4-13.2 64.9-36.9 88.5-19.2 19.2-43.5 31.5-70.1 35.5-6.2.9-12.6 1.4-19 1.4-33.7 0-65.3-13.1-89.1-36.9s-36.9-55.4-36.9-89.1 13.1-65.3 36.9-89.1c18.7-18.8 42.4-30.9 68-35.2v36.9c-39.5 9.5-68.9 45-68.9 87.2 0 49.5 40.4 89.7 90 89.7 9.6 0 19.1-1.5 28.3-4.6 36.7-12.1 61.5-46.2 61.6-84.9v-306h37.5c8.8 60.5 56.9 108.4 117.5 117.2v36.4z" fill="url(#SVGID_1_)"/></svg>